<?xml version="1.0" encoding="utf-8" standalone="no"?>
<!DOCTYPE svg PUBLIC "-//W3C//DTD SVG 1.1//EN"
  "http://www.w3.org/Graphics/SVG/1.1/DTD/svg11.dtd">
<svg xmlns:xlink="http://www.w3.org/1999/xlink" width="499.43952pt" height="218.63952pt" viewBox="0 0 499.43952 218.63952" xmlns="http://www.w3.org/2000/svg" version="1.1">
 <metadata>
  <rdf:RDF xmlns:dc="http://purl.org/dc/elements/1.1/" xmlns:cc="http://creativecommons.org/ns#" xmlns:rdf="http://www.w3.org/1999/02/22-rdf-syntax-ns#">
   <cc:Work>
    <dc:type rdf:resource="http://purl.org/dc/dcmitype/StillImage"/>
    <dc:date>2026-07-19T10:25:16+00:00</dc:date>
    <dc:format>image/svg+xml</dc:format>
    <dc:creator>
     <cc:Agent>
      <dc:title>Matplotlib v3.10.9, https://matplotlib.org/</dc:title>
     </cc:Agent>
    </dc:creator>
   </cc:Work>
  </rdf:RDF>
 </metadata>
 <defs>
  <style type="text/css">*{stroke-linejoin: round; stroke-linecap: butt}</style>
 </defs>
 <g id="figure_1">
  <g id="patch_1">
   <path d="M 0 218.63952
L 499.43952 218.63952
L 499.43952 0
L 0 0
z
" style="fill: #ffffff"/>
  </g>
  <g id="axes_1">
   <g id="patch_2">
    <path d="M 12.90239 99.066983
L 108.321497 99.066983
Q 117.220689 99.066983 117.220689 95.222192
L 117.220689 25.161549
Q 117.220689 21.316758 108.321497 21.316758
L 12.90239 21.316758
Q 4.003199 21.316758 4.003199 25.161549
L 4.003199 95.222192
Q 4.003199 99.066983 12.90239 99.066983
z
" clip-path="url(#p4a2af002d1)" style="fill: #ffffff; stroke: #0072b2; stroke-width: 0.8; stroke-linejoin: miter"/>
   </g>
   <g id="patch_3">
    <path d="M 12.90239 96.503789
L 12.90239 96.503789
Q 15.868787 96.503789 15.868787 95.222192
L 15.868787 25.161549
Q 15.868787 23.879952 12.90239 23.879952
L 12.90239 23.879952
Q 9.935993 23.879952 9.935993 25.161549
L 9.935993 95.222192
Q 9.935993 96.503789 12.90239 96.503789
z
" clip-path="url(#p4a2af002d1)" style="fill: #0072b2"/>
   </g>
   <g id="patch_4">
    <path d="M 138.974268 99.066983
L 234.393375 99.066983
Q 243.292566 99.066983 243.292566 95.222192
L 243.292566 25.161549
Q 243.292566 21.316758 234.393375 21.316758
L 138.974268 21.316758
Q 130.075076 21.316758 130.075076 25.161549
L 130.075076 95.222192
Q 130.075076 99.066983 138.974268 99.066983
z
" clip-path="url(#p4a2af002d1)" style="fill: #ffffff; stroke: #e69f00; stroke-width: 0.8; stroke-linejoin: miter"/>
   </g>
   <g id="patch_5">
    <path d="M 138.974268 96.503789
L 138.974268 96.503789
Q 141.940665 96.503789 141.940665 95.222192
L 141.940665 25.161549
Q 141.940665 23.879952 138.974268 23.879952
L 138.974268 23.879952
Q 136.00787 23.879952 136.00787 25.161549
L 136.00787 95.222192
Q 136.00787 96.503789 138.974268 96.503789
z
" clip-path="url(#p4a2af002d1)" style="fill: #e69f00"/>
   </g>
   <g id="patch_6">
    <path d="M 265.046145 99.066983
L 348.105264 99.066983
Q 357.004456 99.066983 357.004456 95.222192
L 357.004456 25.161549
Q 357.004456 21.316758 348.105264 21.316758
L 265.046145 21.316758
Q 256.146954 21.316758 256.146954 25.161549
L 256.146954 95.222192
Q 256.146954 99.066983 265.046145 99.066983
z
" clip-path="url(#p4a2af002d1)" style="fill: #ffffff; stroke: #009e73; stroke-width: 0.8; stroke-linejoin: miter"/>
   </g>
   <g id="patch_7">
    <path d="M 265.046145 96.503789
L 265.046145 96.503789
Q 268.012542 96.503789 268.012542 95.222192
L 268.012542 25.161549
Q 268.012542 23.879952 265.046145 23.879952
L 265.046145 23.879952
Q 262.079748 23.879952 262.079748 25.161549
L 262.079748 95.222192
Q 262.079748 96.503789 265.046145 96.503789
z
" clip-path="url(#p4a2af002d1)" style="fill: #009e73"/>
   </g>
   <g id="patch_8">
    <path d="M 378.758035 99.066983
L 486.53713 99.066983
Q 495.436321 99.066983 495.436321 95.222192
L 495.436321 25.161549
Q 495.436321 21.316758 486.53713 21.316758
L 378.758035 21.316758
Q 369.858843 21.316758 369.858843 25.161549
L 369.858843 95.222192
Q 369.858843 99.066983 378.758035 99.066983
z
" clip-path="url(#p4a2af002d1)" style="fill: #ffffff; stroke: #d55e00; stroke-width: 0.8; stroke-linejoin: miter"/>
   </g>
   <g id="patch_9">
    <path d="M 378.758035 96.503789
L 378.758035 96.503789
Q 381.724432 96.503789 381.724432 95.222192
L 381.724432 25.161549
Q 381.724432 23.879952 378.758035 23.879952
L 378.758035 23.879952
Q 375.791638 23.879952 375.791638 25.161549
L 375.791638 95.222192
Q 375.791638 96.503789 378.758035 96.503789
z
" clip-path="url(#p4a2af002d1)" style="fill: #d55e00"/>
   </g>
   <g id="patch_10">
    <path d="M 115.763562 60.19187
Q 123.649591 60.19187 130.193979 60.19187
" clip-path="url(#p4a2af002d1)" style="fill: none; stroke: #6b7280; stroke-width: 1.2; stroke-linecap: round"/>
    <path d="M 126.593979 58.39187
L 130.193979 60.19187
L 126.593979 61.99187
z
" clip-path="url(#p4a2af002d1)" style="fill: #6b7280; stroke: #6b7280; stroke-width: 1.2; stroke-linecap: round"/>
   </g>
   <g id="patch_11">
    <path d="M 241.83544 60.19187
Q 249.721469 60.19187 256.265857 60.19187
" clip-path="url(#p4a2af002d1)" style="fill: none; stroke: #6b7280; stroke-width: 1.2; stroke-linecap: round"/>
    <path d="M 252.665857 58.39187
L 256.265857 60.19187
L 252.665857 61.99187
z
" clip-path="url(#p4a2af002d1)" style="fill: #6b7280; stroke: #6b7280; stroke-width: 1.2; stroke-linecap: round"/>
   </g>
   <g id="patch_12">
    <path d="M 355.547329 60.19187
Q 363.433358 60.19187 369.977746 60.19187
" clip-path="url(#p4a2af002d1)" style="fill: none; stroke: #6b7280; stroke-width: 1.2; stroke-linecap: round"/>
    <path d="M 366.377746 58.39187
L 369.977746 60.19187
L 366.377746 61.99187
z
" clip-path="url(#p4a2af002d1)" style="fill: #6b7280; stroke: #6b7280; stroke-width: 1.2; stroke-linecap: round"/>
   </g>
   <g id="patch_13">
    <path d="M 20.318383 197.322762
L 115.73749 197.322762
Q 124.636681 197.322762 124.636681 193.477971
L 124.636681 138.369295
Q 124.636681 134.524503 115.73749 134.524503
L 20.318383 134.524503
Q 11.419191 134.524503 11.419191 138.369295
L 11.419191 193.477971
Q 11.419191 197.322762 20.318383 197.322762
z
" clip-path="url(#p4a2af002d1)" style="fill: #f8fafc; stroke: #d1d5db; stroke-width: 0.8; stroke-linejoin: miter"/>
   </g>
   <g id="patch_14">
    <path d="M 141.446265 197.322762
L 236.865372 197.322762
Q 245.764564 197.322762 245.764564 193.477971
L 245.764564 138.369295
Q 245.764564 134.524503 236.865372 134.524503
L 141.446265 134.524503
Q 132.547074 134.524503 132.547074 138.369295
L 132.547074 193.477971
Q 132.547074 197.322762 141.446265 197.322762
z
" clip-path="url(#p4a2af002d1)" style="fill: #f8fafc; stroke: #d1d5db; stroke-width: 0.8; stroke-linejoin: miter"/>
   </g>
   <g id="patch_15">
    <path d="M 262.574148 197.322762
L 357.993255 197.322762
Q 366.892446 197.322762 366.892446 193.477971
L 366.892446 138.369295
Q 366.892446 134.524503 357.993255 134.524503
L 262.574148 134.524503
Q 253.674956 134.524503 253.674956 138.369295
L 253.674956 193.477971
Q 253.674956 197.322762 262.574148 197.322762
z
" clip-path="url(#p4a2af002d1)" style="fill: #f8fafc; stroke: #d1d5db; stroke-width: 0.8; stroke-linejoin: miter"/>
   </g>
   <g id="patch_16">
    <path d="M 383.70203 197.322762
L 479.121137 197.322762
Q 488.020329 197.322762 488.020329 193.477971
L 488.020329 138.369295
Q 488.020329 134.524503 479.121137 134.524503
L 383.70203 134.524503
Q 374.802839 134.524503 374.802839 138.369295
L 374.802839 193.477971
Q 374.802839 197.322762 383.70203 197.322762
z
" clip-path="url(#p4a2af002d1)" style="fill: #f8fafc; stroke: #d1d5db; stroke-width: 0.8; stroke-linejoin: miter"/>
   </g>
   <g id="text_1">
    <text style="font-weight: 700; font-size: 8.5px; font-family: 'DejaVu Sans'; text-anchor: start; fill: #1f2937" x="22.295981" y="37.814607" transform="rotate(-0 22.295981 37.814607)">Benchmark layers</text>
   </g>
   <g id="text_2">
    <text style="font-size: 8px; font-family: 'DejaVu Sans'; fill: #1f2937" transform="translate(22.295981 48.114661)">Controlled core</text>
    <text style="font-size: 8px; font-family: 'DejaVu Sans'; fill: #1f2937" transform="translate(22.295981 57.984724)">Mechanistic generators</text>
    <text style="font-size: 8px; font-family: 'DejaVu Sans'; fill: #1f2937" transform="translate(22.295981 67.854786)">Provenance graphs</text>
    <text style="font-size: 8px; font-family: 'DejaVu Sans'; fill: #1f2937" transform="translate(22.295981 77.724849)">Public + order-book replay</text>
    <text style="font-size: 8px; font-family: 'DejaVu Sans'; fill: #1f2937" transform="translate(22.295981 87.594911)">Actual models + training</text>
   </g>
   <g id="text_3">
    <text style="font-weight: 700; font-size: 8.5px; font-family: 'DejaVu Sans'; text-anchor: start; fill: #1f2937" x="148.367858" y="37.814607" transform="rotate(-0 148.367858 37.814607)">Execution rules</text>
   </g>
   <g id="text_4">
    <text style="font-size: 8px; font-family: 'DejaVu Sans'; fill: #1f2937" transform="translate(148.367858 48.114661)">Direct and confidence</text>
    <text style="font-size: 8px; font-family: 'DejaVu Sans'; fill: #1f2937" transform="translate(148.367858 57.984724)">Cost and risk</text>
    <text style="font-size: 8px; font-family: 'DejaVu Sans'; fill: #1f2937" transform="translate(148.367858 67.854786)">Role and provenance</text>
    <text style="font-size: 8px; font-family: 'DejaVu Sans'; fill: #1f2937" transform="translate(148.367858 77.724849)">Lifecycle routing</text>
    <text style="font-size: 8px; font-family: 'DejaVu Sans'; fill: #1f2937" transform="translate(148.367858 87.594911)">Equal-info adapters</text>
   </g>
   <g id="text_5">
    <text style="font-weight: 700; font-size: 8.5px; font-family: 'DejaVu Sans'; text-anchor: start; fill: #1f2937" x="274.439736" y="37.814607" transform="rotate(-0 274.439736 37.814607)">Routing</text>
   </g>
   <g id="text_6">
    <text style="font-size: 8px; font-family: 'DejaVu Sans'; fill: #1f2937" transform="translate(274.439736 48.114661)">execute</text>
    <text style="font-size: 8px; font-family: 'DejaVu Sans'; fill: #1f2937" transform="translate(274.439736 57.984724)">reduce</text>
    <text style="font-size: 8px; font-family: 'DejaVu Sans'; fill: #1f2937" transform="translate(274.439736 67.854786)">human review</text>
    <text style="font-size: 8px; font-family: 'DejaVu Sans'; fill: #1f2937" transform="translate(274.439736 77.724849)">abstain</text>
   </g>
   <g id="text_7">
    <text style="font-weight: 700; font-size: 8.5px; font-family: 'DejaVu Sans'; text-anchor: start; fill: #1f2937" x="388.151626" y="37.814607" transform="rotate(-0 388.151626 37.814607)">Validity audits</text>
   </g>
   <g id="text_8">
    <text style="font-size: 8px; font-family: 'DejaVu Sans'; fill: #1f2937" transform="translate(388.151626 48.114661)">NUAR / ALR / coverage</text>
    <text style="font-size: 8px; font-family: 'DejaVu Sans'; fill: #1f2937" transform="translate(388.151626 57.984724)">Certification surface</text>
    <text style="font-size: 8px; font-family: 'DejaVu Sans'; fill: #1f2937" transform="translate(388.151626 67.854786)">Point-in-time power</text>
    <text style="font-size: 8px; font-family: 'DejaVu Sans'; fill: #1f2937" transform="translate(388.151626 77.724849)">Mechanism coverage</text>
    <text style="font-size: 8px; font-family: 'DejaVu Sans'; fill: #1f2937" transform="translate(388.151626 87.594911)">Freeze and field access</text>
   </g>
   <g id="text_9">
    <text style="font-weight: 700; font-size: 8px; font-family: 'DejaVu Sans'; text-anchor: start; fill: #0072b2" x="26.251177" y="144.563681" transform="rotate(-0 26.251177 144.563681)">F1</text>
   </g>
   <g id="text_10">
    <text style="font-weight: 700; font-size: 8px; font-family: 'DejaVu Sans'" transform="translate(26.251177 164.4639)">Coverage-aware</text>
    <text style="font-weight: 700; font-size: 8px; font-family: 'DejaVu Sans'" transform="translate(26.251177 173.180712)">certification</text>
   </g>
   <g id="text_11">
    <text style="font-size: 8px; font-family: 'DejaVu Sans'; fill: #6b7280" transform="translate(40.482311 181.022227)">frontier, not a</text>
    <text style="font-size: 8px; font-family: 'DejaVu Sans'; fill: #6b7280" transform="translate(41.356686 189.251027)">single winner</text>
   </g>
   <g id="text_12">
    <text style="font-weight: 700; font-size: 8px; font-family: 'DejaVu Sans'; text-anchor: start; fill: #0072b2" x="147.379059" y="144.563681" transform="rotate(-0 147.379059 144.563681)">F2</text>
   </g>
   <g id="text_13">
    <text style="font-weight: 700; font-size: 8px; font-family: 'DejaVu Sans'" transform="translate(147.379059 164.5264)">Provenance under</text>
    <text style="font-weight: 700; font-size: 8px; font-family: 'DejaVu Sans'" transform="translate(147.379059 173.180712)">partial observability</text>
   </g>
   <g id="text_14">
    <text style="font-size: 8px; font-family: 'DejaVu Sans'; fill: #6b7280" transform="translate(168.448944 181.022227)">Bayes-risk</text>
    <text style="font-size: 8px; font-family: 'DejaVu Sans'; fill: #6b7280" transform="translate(156.500194 189.251027)">information cost</text>
   </g>
   <g id="text_15">
    <text style="font-weight: 700; font-size: 8px; font-family: 'DejaVu Sans'; text-anchor: start; fill: #0072b2" x="268.506942" y="144.563681" transform="rotate(-0 268.506942 144.563681)">F3</text>
   </g>
   <g id="text_16">
    <text style="font-weight: 700; font-size: 8px; font-family: 'DejaVu Sans'" transform="translate(268.506942 164.5264)">Source/mechanism</text>
    <text style="font-weight: 700; font-size: 8px; font-family: 'DejaVu Sans'" transform="translate(268.506942 173.180712)">transfer</text>
   </g>
   <g id="text_17">
    <text style="font-size: 8px; font-family: 'DejaVu Sans'; fill: #6b7280" transform="translate(276.249951 181.022227)">200-date inverse</text>
    <text style="font-size: 8px; font-family: 'DejaVu Sans'; fill: #6b7280" transform="translate(282.103701 189.251027)">not supported</text>
   </g>
   <g id="text_18">
    <text style="font-weight: 700; font-size: 8px; font-family: 'DejaVu Sans'; text-anchor: start; fill: #0072b2" x="389.634824" y="144.563681" transform="rotate(-0 389.634824 144.563681)">F4</text>
   </g>
   <g id="text_19">
    <text style="font-weight: 700; font-size: 8px; font-family: 'DejaVu Sans'" transform="translate(389.634824 164.5264)">Validity gates +</text>
    <text style="font-weight: 700; font-size: 8px; font-family: 'DejaVu Sans'" transform="translate(389.634824 173.243212)">hidden challenge</text>
   </g>
   <g id="text_20">
    <text style="font-size: 8px; font-family: 'DejaVu Sans'; fill: #6b7280" transform="translate(401.012209 181.022227)">mixed FAIL and</text>
    <text style="font-size: 8px; font-family: 'DejaVu Sans'; fill: #6b7280" transform="translate(406.382209 189.251027)">N/A retained</text>
   </g>
   <g id="text_21">
    <text style="font-weight: 700; font-size: 9.5px; font-family: 'DejaVu Sans'; text-anchor: middle" x="249.71976" y="17.214499" transform="rotate(-0 249.71976 17.214499)">FinAuth-Audit evaluates whether authorization benchmarks themselves are valid</text>
   </g>
  </g>
 </g>
 <defs>
  <clipPath id="p4a2af002d1">
   <rect x="2.52" y="2.52" width="494.39952" height="213.59952"/>
  </clipPath>
 </defs>
</svg>
